<svg viewBox="0 0 1077 1398" fill="none" xmlns="http://www.w3.org/2000/svg">
<path d="M1594.49 783.165L1438.85 870.358C1283.2 957.551 971.912 1131.94 693.825 1263.28C418.245 1391.38 169.604 1484.56 160.908 1266.7C148.454 1053.71 375.946 529.69 363.492 316.704C354.797 98.8449 106.156 192.021 31.0525 60.2452C-46.5567 -68.2824 43.1073 -413.641 87.9392 -586.321L132.771 -759L188.178 -716.257C243.584 -673.514 354.398 -588.028 465.211 -502.542C576.024 -417.055 686.837 -331.569 797.65 -246.083C908.464 -160.597 1019.28 -75.1109 1130.09 10.3752C1240.9 95.8614 1351.72 181.348 1462.53 266.834C1573.34 352.32 1684.16 437.806 1739.56 480.549L1794.97 523.292L1594.49 783.165Z" fill="url(#paint0_linear_25_2224)"/>
<defs>
<linearGradient id="paint0_linear_25_2224" x1="1052" y1="1536.5" x2="-200.616" y2="387.589" gradientUnits="userSpaceOnUse">
<stop stop-color="#6100FF"/>
<stop offset="1" stop-color="#618CFF"/>
</linearGradient>
</defs>
</svg>
