<svg viewBox="0 0 1321 2098" fill="none" xmlns="http://www.w3.org/2000/svg">
<path d="M32.3025 11.7725L193.794 87.5912C355.286 163.41 678.27 315.048 946.928 464.735C1211.49 614.276 1431.97 762.235 1259.87 896.103C1093.92 1030.19 535.399 1150.19 369.452 1284.28C197.355 1418.15 417.838 1566.11 354.392 1703.88C295.047 1841.79 -37.9766 1969.88 -204.488 2033.93L-371 2097.98L-368.49 2028.04C-365.98 1958.11 -360.96 1818.25 -355.94 1678.38C-350.92 1538.52 -345.9 1398.65 -340.88 1258.79C-335.86 1118.92 -330.841 979.056 -325.821 839.191C-320.801 699.326 -315.781 559.46 -310.761 419.595C-305.741 279.73 -300.721 139.865 -298.211 69.9326L-295.701 4.14827e-06L32.3025 11.7725Z" fill="url(#paint0_linear_69_2537)"/>
<defs>
<linearGradient id="paint0_linear_69_2537" x1="960.637" y1="14.4591" x2="755.416" y2="1701.74" gradientUnits="userSpaceOnUse">
<stop stop-color="#618CFF"/>
<stop offset="1" stop-color="#6100FF"/>
</linearGradient>
</defs>
</svg>
